<svg xmlns="http://www.w3.org/2000/svg" xmlns:ns1="http://sozi.baierouge.fr" xmlns:svg="http://www.w3.org/2000/svg" xmlns:xlink="http://www.w3.org/1999/xlink" id="svg2" version="1.0" viewBox="0 0 48 48"><g id="layer1"><g id="g3276"><g id="g5114" stroke="#000" stroke-width="3.199" transform="matrix(.37515 0 0 .37515 -107.76 -142.56)"><path id="path5112" fill="none" stroke="#000" stroke-dashoffset="5" stroke-linecap="round" stroke-linejoin="round" stroke-width="3.199" d="m335.97 451.57c-9.22-4.99-15.48-14.75-15.48-25.96 0-10.86 5.87-20.35 14.61-25.47"/><path id="path5107" fill="none" stroke="#000" stroke-dashoffset="5" stroke-linecap="round" stroke-linejoin="round" stroke-width="3.199" d="m365.47 400.48c8.42 5.2 14.04 14.51 14.04 25.13 0 10.97-6 20.56-14.9 25.64"/></g><use id="use5733" width="744.094" height="1052.362" x="0" y="0" transform="matrix(1.32 0 0 1.32 -7.5349 -5.5046)" xlink:href="#g5114"/><use id="use5735" width="744.094" height="1052.362" x="0" y="0" transform="matrix(1.6479 0 0 1.6479 -15.256 -11.145)" xlink:href="#g5114"/><path id="path5737" fill="none" stroke="#000" stroke-linecap="round" stroke-width="1.876" d="m23.731 16.933v30.012"/><path id="path5739" fill="#000" fill-rule="evenodd" d="m380 429.86a7.5 7.5 0 1 1 -15 0 7.5 7.5 0 1 1 15 0z" transform="matrix(.37515 0 0 .37515 -116.01 -144.33)"/></g></g><metadata/></svg>